<?xml version="1.0" encoding="UTF-8" standalone="no"?>
<svg width="20px" height="15px" viewBox="0 0 20 15" version="1.1" xmlns="http://www.w3.org/2000/svg" xmlns:xlink="http://www.w3.org/1999/xlink" xmlns:sketch="http://www.bohemiancoding.com/sketch/ns">
    <!-- Generator: Sketch 3.3.1 (12002) - http://www.bohemiancoding.com/sketch -->
    <title>Imported Layers</title>
    <desc>Created with Sketch.</desc>
    <defs></defs>
    <g id="Page-1" stroke="none" stroke-width="1" fill="none" fill-rule="evenodd" sketch:type="MSPage">
        <path d="M18.2573913,5.91869565 L4.45173913,5.91869565 L8.14391304,2.22652174 C8.65347826,1.71695652 8.65347826,0.89173913 8.14391304,0.382173913 C7.63434783,-0.127391304 6.80869565,-0.127391304 6.29956522,0.382173913 L0.380434783,6.30086957 C0.319565217,6.36217391 0.265217391,6.42826087 0.217391304,6.49956522 C0.196956522,6.52826087 0.185217391,6.56086957 0.16826087,6.59130435 C0.144347826,6.63521739 0.117391304,6.67782609 0.0986956522,6.72521739 C0.0834782609,6.7626087 0.0747826087,6.80347826 0.0630434783,6.8426087 C0.0491304348,6.88521739 0.0339130435,6.92565217 0.0256521739,6.97 C0.012173913,7.03608696 0.00869565217,7.10434783 0.0052173913,7.17217391 C0.0052173913,7.19086957 0,7.20608696 0,7.22478261 C0,7.24521739 0.0052173913,7.26391304 0.0052173913,7.28434783 C0.00869565217,7.34869565 0.012173913,7.41478261 0.0256521739,7.47956522 C0.0339130435,7.52521739 0.0508695652,7.56956522 0.0647826087,7.61347826 C0.0765217391,7.65086957 0.0834782609,7.68652174 0.0986956522,7.72217391 C0.119130435,7.77347826 0.147826087,7.81913043 0.175217391,7.86652174 C0.190434783,7.89391304 0.202173913,7.92086957 0.219130435,7.94652174 C0.266521739,8.01956522 0.322608696,8.0873913 0.383913043,8.14869565 L6.30086957,14.0656522 C6.55565217,14.3204348 6.89043478,14.4478261 7.22304348,14.4478261 C7.55782609,14.4478261 7.89086957,14.3204348 8.14565217,14.0656522 C8.65478261,13.556087 8.65478261,12.7308696 8.14565217,12.2213043 L4.45173913,8.5273913 L18.2573913,8.5273913 C18.9778261,8.5273913 19.5617391,7.94304348 19.5617391,7.22304348 C19.5617391,6.50304348 18.9795652,5.91869565 18.2573913,5.91869565" id="Imported-Layers" fill="#7C7C7C" sketch:type="MSShapeGroup"></path>
    </g>
</svg>