<?xml version="1.0" encoding="UTF-8" standalone="no"?>
<svg width="21px" height="24px" viewBox="0 0 21 24" version="1.1" xmlns="http://www.w3.org/2000/svg" xmlns:xlink="http://www.w3.org/1999/xlink" xmlns:sketch="http://www.bohemiancoding.com/sketch/ns">
    <!-- Generator: Sketch 3.3.1 (12002) - http://www.bohemiancoding.com/sketch -->
    <title>Imported Layers</title>
    <desc>Created with Sketch.</desc>
    <defs></defs>
    <g id="Page-1" stroke="none" stroke-width="1" fill="none" fill-rule="evenodd" sketch:type="MSPage">
        <path d="M9.38828571,16.9479592 C8.92971429,16.9479592 8.568,16.8086735 8.30357143,16.5326735 C8.03742857,16.2545306 7.905,15.8748163 7.905,15.3926735 C7.905,15.0592449 7.947,14.7446735 8.02585714,14.4485306 L9.30471429,9.65195918 C9.33471429,9.56667347 9.35142857,9.47795918 9.35142857,9.38581633 C9.35142857,9.2152449 9.28114286,9.1882449 9.13885714,9.0862449 C8.99657143,8.98553061 8.75228571,9.0442449 8.40728571,9.0442449 L7.815,9.0442449 L8.07428571,8.0932449 L12.2245714,7.86395918 L10.3628571,14.733102 C10.2758571,15.0326735 10.2338571,15.2383878 10.2338571,15.3776735 C10.2338571,15.486102 10.2557143,15.5615306 10.299,15.6185306 C10.3427143,15.6755306 10.4031429,15.7003878 10.4781429,15.7003878 C10.6491429,15.7003878 10.8668571,15.5666735 11.1312857,15.3005306 C11.5731429,14.8616735 12.0051429,14.2406735 12.4285714,13.4388163 L13.1048571,13.827102 C11.9781429,15.9082449 10.7395714,16.9479592 9.38828571,16.9479592 L9.38828571,16.9479592 Z M10.3375714,4.51938776 C10.6341429,4.22281633 10.9941429,4.07367347 11.4141429,4.07367347 C11.8358571,4.07367347 12.1958571,4.22281633 12.4924286,4.51938776 C12.7885714,4.8172449 12.9394286,5.17553061 12.9394286,5.5972449 C12.9394286,6.01938776 12.7902857,6.37767347 12.4924286,6.67553061 C12.1958571,6.97167347 11.8358571,7.12081633 11.4141429,7.12081633 C10.9941429,7.12081633 10.6341429,6.97167347 10.3375714,6.67553061 C10.0414286,6.37895918 9.89228571,6.01938776 9.89228571,5.5972449 C9.89228571,5.17553061 10.0414286,4.81553061 10.3375714,4.51938776 L10.3375714,4.51938776 Z M10.3778571,0.0408163265 C4.64571429,0.0408163265 0,4.6882449 0,10.4186735 C0,13.971102 1.79657143,17.1069592 4.51842857,18.9768163 L4.50342857,18.9883878 L4.50342857,23.5085306 C4.50342857,24.4128163 5.39057143,23.5085306 5.39057143,23.5085306 L8.31042857,20.589102 C8.97985714,20.7245306 9.67285714,20.7965306 10.3812857,20.7965306 C16.1134286,20.7965306 20.7591429,16.1508163 20.7591429,10.4186735 C20.7557143,4.68653061 16.11,0.0408163265 10.3778571,0.0408163265 L10.3778571,0.0408163265 Z" id="Imported-Layers" fill="#7C7C7C" sketch:type="MSShapeGroup"></path>
    </g>
</svg>