<?xml version="1.0" encoding="UTF-8" standalone="no"?>
<svg width="36px" height="12px" viewBox="0 0 36 12" version="1.1" xmlns="http://www.w3.org/2000/svg" xmlns:xlink="http://www.w3.org/1999/xlink" xmlns:sketch="http://www.bohemiancoding.com/sketch/ns">
    <!-- Generator: Sketch 3.3.1 (12002) - http://www.bohemiancoding.com/sketch -->
    <title>Imported Layers</title>
    <desc>Created with Sketch.</desc>
    <defs></defs>
    <g id="Page-1" stroke="none" stroke-width="1" fill="none" fill-rule="evenodd" sketch:type="MSPage">
        <g id="Imported-Layers" sketch:type="MSLayerGroup" fill="#7C7C7C">
            <path d="M23.9668011,0.0326480447 L0.0197605893,0.0326480447 L0.0197605893,11.9930279 L35.7323923,11.9930279 L35.7323923,0.0326480447 L23.9668011,0.0326480447 L23.9668011,0.0326480447 Z M0.387375691,0.394324022 L11.8098821,0.394324022 L11.8098821,11.631419 L0.387375691,11.631419 L0.387375691,0.394324022 Z M12.1774972,0.394324022 L23.5752007,0.394324022 L23.5752007,11.631419 L12.1774972,11.631419 L12.1774972,0.394324022 Z M23.9668011,0.394324022 L35.364709,0.394324022 L35.364709,11.631419 L23.9668011,11.631419 L23.9668011,0.394324022 Z" id="Fill-2" sketch:type="MSShapeGroup"></path>
            <path d="M4.76502762,4.69112849 C4.89715101,4.52252514 5.08112891,4.3796648 5.31607551,4.26610056 C5.5510221,4.15159777 5.77227256,4.09434637 5.97921363,4.09434637 C6.42723389,4.09434637 6.75008103,4.21092737 6.94741436,4.44261453 C7.1450884,4.6753743 7.24395948,5.04375419 7.24395948,5.54909497 L7.24395948,8.97124022 L8.65370718,8.97124022 L8.65370718,5.33001117 C8.65370718,4.5735419 8.44513076,3.98259218 8.02981768,3.56044693 C7.6145046,3.13635754 7.04676243,2.92505028 6.32945304,2.92505028 C5.58093554,2.92505028 5.01510129,3.14332961 4.63160958,3.58008939 L4.37192818,3.0255419 L3.35609761,3.0255419 L3.35609761,8.97124022 L4.76502762,8.97124022 L4.76502762,4.69112849" id="Fill-3" sketch:type="MSShapeGroup"></path>
            <path d="M16.5635985,8.82724022 C16.9285562,9.00073743 17.3324899,9.08849162 17.7767624,9.08849162 C18.6985599,9.08849162 19.4250681,8.82589944 19.9582634,8.30051397 C20.4904365,7.77606704 20.7559779,7.02589944 20.7559779,6.05443575 C20.7559779,3.96871508 19.7936372,2.92505028 17.8672523,2.92505028 C17.3514328,2.92505028 16.9169042,3.09211173 16.5635985,3.42455866 L16.5635985,3.0255419 L15.1537145,3.0255419 L15.1537145,11.0239106 L16.5635985,11.0239106 L16.5635985,8.82724022 L16.5635985,8.82724022 Z M16.5635985,4.49832402 C16.8255285,4.24082682 17.1256169,4.11063687 17.4633867,4.11063687 C18.1116022,4.11063687 18.5768619,4.25403352 18.8581436,4.54022346 C19.1386759,4.82614525 19.2793849,5.31935196 19.2793849,6.02118436 C19.2793849,6.67736313 19.1376538,7.15836872 18.8552136,7.4627933 C18.5717514,7.76661453 18.1059466,7.91932961 17.4577993,7.91932961 C17.1164862,7.91932961 16.8180331,7.81789944 16.5635985,7.61470391 L16.5635985,4.49832402 L16.5635985,4.49832402 Z" id="Fill-4" sketch:type="MSShapeGroup"></path>
            <path d="M29.1675157,5.59850279 C29.1675157,5.17823464 29.2930976,4.8227933 29.5458287,4.53144134 C29.7985599,4.23995531 30.0876777,4.09434637 30.4125691,4.09434637 C30.7123168,4.09434637 30.9869208,4.17224581 31.2380847,4.32824581 L31.8328103,3.14151955 C31.5784438,2.99731844 31.2113738,2.92505028 30.7330994,2.92505028 C30.0817495,2.92505028 29.5602744,3.14768715 29.1675157,3.59363128 L29.1675157,3.0255419 L27.7579042,3.0255419 L27.7579042,8.97124022 L29.1675157,8.97124022 L29.1675157,5.59850279" id="Fill-5" sketch:type="MSShapeGroup"></path>
        </g>
    </g>
</svg>