<?xml version="1.0" encoding="UTF-8" standalone="no"?>
<svg width="21px" height="24px" viewBox="0 0 21 24" version="1.1" xmlns="http://www.w3.org/2000/svg" xmlns:xlink="http://www.w3.org/1999/xlink" xmlns:sketch="http://www.bohemiancoding.com/sketch/ns">
    <!-- Generator: Sketch 3.3.1 (12002) - http://www.bohemiancoding.com/sketch -->
    <title>Imported Layers</title>
    <desc>Created with Sketch.</desc>
    <defs></defs>
    <g id="Page-1" stroke="none" stroke-width="1" fill="none" fill-rule="evenodd" sketch:type="MSPage">
        <g id="Imported-Layers" sketch:type="MSLayerGroup" fill="#7C7C7C">
            <path d="M3.70588235,3.78947368 L3.70588235,1.21800954 C3.70588235,0.544767965 3.42957653,0 3.08810901,0 C2.74689406,0 2.47058824,0.544767965 2.47058824,1.21800954 L2.47058824,3.78947368 L3.70588235,3.78947368" id="Fill-1" sketch:type="MSShapeGroup"></path>
            <path d="M2.47058824,11.3684211 L2.47058824,23.0525347 C2.47058824,23.5762359 2.74790431,24 3.08810901,24 C3.42957653,24 3.70588235,23.5762359 3.70588235,23.0525347 L3.70588235,11.3684211 L2.47058824,11.3684211" id="Fill-2" sketch:type="MSShapeGroup"></path>
            <path d="M4.94117647,9.29209771 C4.94117647,9.74088175 4.55524591,10.1052632 4.07797319,10.1052632 L0.863598705,10.1052632 C0.386325977,10.1052632 0,9.74088175 0,9.29209771 L0,5.86579703 C0,5.41701299 0.386325977,5.05263158 0.863598705,5.05263158 L4.07797319,5.05263158 C4.55524591,5.05263158 4.94117647,5.41701299 4.94117647,5.86579703 L4.94117647,9.29209771" id="Fill-3" sketch:type="MSShapeGroup"></path>
            <path d="M11.1176471,12.6315789 L11.1176471,0.961290629 C11.1176471,0.429947648 10.8181176,0 10.5,0 C10.1818824,0 9.88235294,0.429947648 9.88235294,0.961290629 L9.88235294,12.6315789 L11.1176471,12.6315789" id="Fill-4" sketch:type="MSShapeGroup"></path>
            <path d="M9.88235294,20.2105263 L9.88235294,22.9759084 C9.88235294,23.541964 10.1742439,24 10.5001205,24 C10.8257561,24 11.1176471,23.541964 11.1176471,22.9759084 L11.1176471,20.2105263 L9.88235294,20.2105263" id="Fill-5" sketch:type="MSShapeGroup"></path>
            <path d="M13.5882353,18.1340234 C13.5882353,18.5829066 13.2024282,18.9473684 12.7253082,18.9473684 L9.51038118,18.9473684 C9.03326118,18.9473684 8.64705882,18.5829066 8.64705882,18.1340234 L8.64705882,14.7069661 C8.64705882,14.258083 9.03326118,13.8947368 9.51038118,13.8947368 L12.7253082,13.8947368 C13.2024282,13.8947368 13.5882353,14.2595706 13.5882353,14.7069661 L13.5882353,18.1340234" id="Fill-6" sketch:type="MSShapeGroup"></path>
            <path d="M18.5294118,7.57894737 L18.5294118,0.994480192 C18.5294118,0.44479204 18.2298824,0 17.9117647,0 C17.5936471,0 17.2941176,0.44479204 17.2941176,0.994480192 L17.2941176,7.57894737 L18.5294118,7.57894737" id="Fill-7" sketch:type="MSShapeGroup"></path>
            <path d="M17.2941176,16.4210526 L17.2941176,23.1433804 C17.2941176,23.6168676 17.5936471,24 17.9117647,24 C18.2298824,24 18.5294118,23.6168676 18.5294118,23.1433804 L18.5294118,16.4210526 L17.2941176,16.4210526" id="Fill-8" sketch:type="MSShapeGroup"></path>
            <path d="M21,11.8182339 C21,12.2671171 20.613674,12.6315789 20.1364013,12.6315789 L16.9220268,12.6315789 C16.4447541,12.6315789 16.0588235,12.2671171 16.0588235,11.8182339 L16.0588235,8.39117668 C16.0588235,7.94229354 16.4447541,7.57894737 16.9220268,7.57894737 L20.1364013,7.57894737 C20.613674,7.57894737 21,7.94229354 21,8.39117668 L21,11.8182339" id="Fill-9" sketch:type="MSShapeGroup"></path>
        </g>
    </g>
</svg>