<?xml version="1.0" encoding="utf-8"?>
<!-- Generator: Adobe Illustrator 18.1.1, SVG Export Plug-In . SVG Version: 6.00 Build 0)  -->
<svg version="1.1" id="Layer_1" xmlns="http://www.w3.org/2000/svg" xmlns:xlink="http://www.w3.org/1999/xlink" x="0px" y="0px"
	 viewBox="0 0 76.7 18.5" enable-background="new 0 0 76.7 18.5" xml:space="preserve">
<g>
	<path fill="#7C7C7C" d="M2.3,2.6H0V0.3h7.3v2.3H4.8v15.6H2.3V2.6z"/>
	<path fill="#7C7C7C" d="M11.4,18.2H8.9v-18h2.5V18.2z"/>
	<path fill="#7C7C7C" d="M21.6,18.2h-2.5l-3-9.4v9.4h-2.5v-18h2.2l3.3,10.6V0.3h2.5V18.2z"/>
	<path fill="#7C7C7C" d="M23.3,0.3H26l1.4,6.6l1.4-6.6h2.6l-2.8,10.5v7.5h-2.5v-7.5L23.3,0.3z"/>
	<path fill="#7C7C7C" d="M39.9,11.9c0,1,0.1,1.4,0.1,1.9c0,3.2-1.2,4.8-3.6,4.8c-2.3,0-3.5-1.5-3.5-4.3V4.3c0-2.9,1.2-4.3,3.5-4.3
		c2.4,0,3.6,1.6,3.6,4.7c0,0.4,0,0.7-0.1,1.4h-2.5c0.1-0.6,0.1-0.8,0.1-1.2c0-2-0.2-2.5-1.1-2.5c-0.8,0-1,0.4-1,2v9.9
		c0,1.6,0.2,2,1,2c0.9,0,1.1-0.5,1.1-2.5c0-0.5,0-1-0.1-1.9H39.9z"/>
	<path fill="#7C7C7C" d="M44.5,10v8.2h-2.5v-18h2.5v7.4h2V0.3H49v18h-2.5V10H44.5z"/>
	<path fill="#7C7C7C" d="M53.3,18.2h-2.4l2.5-18h3.2l2.3,18h-2.5l-0.5-4h-2.3L53.3,18.2z M54.9,3.5L54,11.9h1.7L54.9,3.5z"/>
	<path fill="#7C7C7C" d="M63.2,0.3c2,0,2.9,0.3,3.7,1.3c0.6,0.8,0.9,2,0.9,3.7c0,2.2-0.2,3-1.3,4.4l1.8,8.6h-2.7l-1.5-7.7
		c-0.4,0.1-0.5,0.1-0.9,0.1v7.6h-2.5v-18H63.2z M63.6,8.1c0.8,0,1.3-0.2,1.5-0.6c0.2-0.4,0.2-0.8,0.2-2.4c0-1.9-0.4-2.4-1.8-2.4
		h-0.4v5.5H63.6z"/>
	<path fill="#7C7C7C" d="M71.7,2.6h-2.3V0.3h7.3v2.3h-2.5v15.6h-2.5V2.6z"/>
</g>
</svg>
